<svg preserveAspectRatio="none" width="100%" height="100%" overflow="visible" style="display: block;" viewBox="0 0 62.1055 79.7484" fill="none" xmlns="http://www.w3.org/2000/svg">
<g id="Max">
<path id="Vector" d="M54.395 34.6859C54.6784 34.4421 60.5966 29.1081 61.8644 30.5819C63.1323 32.0557 58.9863 40.023 58.9863 40.023C58.9863 40.023 53.9325 46.935 50.369 42.7926C44.5099 35.9818 50.9037 37.6893 54.395 34.6859Z" fill="var(--fill-0, #BEC4DC)"/>
<path id="Vector_2" d="M52.7012 47.1141C49.1814 55.2108 44.723 78.3972 29.8207 79.6749C11.3407 81.2594 8.34878 56.7948 6.94051 47.1141C6.94051 33.9501 1.85335 37.4339 28.7647 34.6178C41.5957 34.6178 55.8693 33.9501 52.7012 47.1141Z" fill="var(--fill-0, #E8ECF6)"/>
<path id="Vector_3" d="M40.0288 31.3584C40.9092 31.3534 42.6062 31.9049 43.1969 33.8208C45.0861 39.9487 43.3798 53.5358 31.5806 53.5358C17.6763 53.5358 24.1884 34.3513 19.6123 32.056C21.4362 30.8106 36.3327 31.3795 40.0288 31.3584Z" fill="var(--fill-0, #FFA005)"/>
<path id="Vector_4" d="M57.6294 18.2075C57.6294 37.5293 41.6951 36.8868 28.4127 36.6319C15.4099 36.3823 0.252049 35.4173 0.252049 17.8554C0.019655 15.8499 0.430158 13.815 1.38925 11.872C4.74439 5.07523 14.813 -0.596041 27.5579 0.0503142C27.8877 0.0670441 28.211 0.161021 28.5009 0.319264C28.7906 0.477391 29.1114 0.570212 29.4408 0.591214L31.976 0.752858C32.2952 0.773209 32.6149 0.722135 32.9119 0.603353C33.1946 0.490247 33.4982 0.438469 33.8024 0.451441L36.3329 0.559329C49.6737 2.0301 57.6294 6.9477 57.6294 18.2075Z" fill="var(--fill-0, #E8ECF6)"/>
<path id="Vector_5" d="M54.1088 18.2091C54.6371 29.6485 43.9488 31.0574 32.2843 31.0574C20.6198 31.0574 11.3401 29.6485 11.1638 18.2091C10.9604 5.00943 20.6198 5.36078 32.2843 5.36078C43.9488 5.36078 54.8131 6.0639 54.1088 18.2091Z" fill="var(--fill-0, #363643)"/>
<path id="Vector_6" d="M33.6926 0.431759C34.5726 0.607763 37.0367 3.24783 33.3406 3.07182C29.6445 3.07182 29.1163 0.783767 28.7925 0.497127C29.1531 0.693951 29.1529 0.573607 29.563 0.599749L31.826 0.744037C32.2438 0.770678 32.6623 0.703819 33.051 0.54833L33.3406 0.432492L33.6926 0.431759Z" fill="var(--fill-0, #FFA005)"/>
<path id="Vector_7" d="M28 15.5222C28 17.5676 25.7614 16.5804 23 16.5804C20.2386 16.5804 18 17.5676 18 15.5222C18 13.4767 20.2386 11.8186 23 11.8186C25.7614 11.8186 28 13.4767 28 15.5222Z" fill="var(--fill-0, #7D99B3)"/>
<path id="Vector_8" d="M49 15.5222C49 17.5676 46.7614 16.5804 44 16.5804C41.2386 16.5804 39 17.5676 39 15.5222C39 13.4767 41.2386 11.8186 44 11.8186C46.7614 11.8186 49 13.4767 49 15.5222Z" fill="var(--fill-0, #7D99B3)"/>
<path id="Vector_9" d="M29.1168 23.4427C29.1168 21.5707 31.0868 22.4743 33.5169 22.4743C35.947 22.4743 37.917 21.5707 37.917 23.4428C37.917 25.3148 35.947 26.8324 33.5169 26.8324C31.0868 26.8324 29.1168 25.3148 29.1168 23.4427Z" fill="var(--fill-0, #7D99B3)"/>
<path id="Vector_10" d="M9.37619 51.7923C9.37619 52.3208 9.56024 63.5846 7.61615 63.5846C5.67206 63.5846 2.33602 51.7923 2.33602 51.7923C2.33602 51.7923 0.391932 40 5.85611 40C14.8404 40 9.37619 45.2796 9.37619 51.7923Z" fill="var(--fill-0, #D9DDEA)"/>
</g>
</svg>
